<?xml version="1.0" standalone="no"?>
<!DOCTYPE svg PUBLIC "-//W3C//DTD SVG 20010904//EN"
 "http://www.w3.org/TR/2001/REC-SVG-20010904/DTD/svg10.dtd">
<svg version="1.0" xmlns="http://www.w3.org/2000/svg"
 width="201.000000pt" height="251.000000pt" viewBox="0 0 201.000000 251.000000"
 preserveAspectRatio="xMidYMid meet">

<g transform="translate(0.000000,251.000000) scale(0.100000,-0.100000)"
fill="#000000" stroke="none">
<path d="M953 2503 c-7 -2 -9 -11 -6 -19 3 -8 -1 -14 -10 -14 -8 0 -17 6 -20
13 -3 9 -7 9 -18 1 -8 -6 -33 -10 -56 -9 -24 0 -43 -3 -43 -7 0 -5 -12 -5 -26
-2 -19 5 -25 4 -20 -5 4 -6 14 -11 22 -11 8 0 13 -4 10 -9 -4 -5 0 -12 6 -14
8 -3 4 -6 -7 -7 -21 -2 -35 -5 -47 -10 -5 -1 -11 -3 -15 -4 -32 -8 -84 -38
-89 -51 -3 -8 -15 -15 -25 -15 -12 0 -19 -7 -19 -20 0 -11 -4 -20 -10 -20 -5
0 -10 -7 -10 -15 0 -21 -43 -109 -58 -118 -7 -5 -9 -14 -5 -20 4 -7 0 -6 -10
2 -14 11 -17 11 -17 -1 0 -8 5 -19 12 -26 9 -9 9 -12 1 -12 -7 0 -14 -10 -16
-22 l-4 -23 -2 23 c-1 15 -7 22 -21 22 -23 0 -26 12 -7 32 6 7 13 29 14 50 1
20 16 62 33 93 35 66 34 82 -3 33 -36 -48 -86 -162 -108 -246 -10 -40 -21 -77
-24 -82 -3 -5 -6 -52 -6 -105 0 -52 -4 -95 -8 -95 -10 0 -19 -41 -28 -118 -5
-45 -3 -51 11 -46 9 4 17 19 17 38 1 26 2 27 6 7 3 -17 7 -20 13 -11 4 7 11
-30 14 -86 10 -165 34 -278 101 -479 22 -66 31 -111 28 -132 -7 -46 13 -42 22
5 4 23 20 51 43 75 20 20 31 37 24 37 -14 0 -92 71 -92 83 0 5 5 5 10 2 18
-11 11 24 -25 128 -19 56 -37 127 -41 158 l-6 55 56 57 c32 31 61 57 66 57 4
0 39 18 78 40 82 47 115 50 190 15 60 -28 62 -28 62 -16 0 4 -27 20 -60 35
-33 15 -60 29 -60 30 0 2 55 41 123 86 147 100 225 167 325 280 42 47 81 86
88 88 17 4 90 -83 132 -157 50 -90 77 -170 101 -297 32 -165 29 -184 -30 -184
-23 0 -24 8 -2 32 13 15 14 18 1 18 -8 0 -23 -7 -34 -15 -13 -10 -44 -14 -98
-15 -63 0 -90 -5 -137 -26 -59 -27 -69 -37 -48 -49 6 -4 8 -14 5 -22 -12 -31
6 -32 27 -2 20 30 67 69 67 56 0 -3 -8 -13 -17 -23 -22 -22 -24 -114 -3 -139
7 -9 30 -24 49 -34 30 -15 43 -16 78 -7 35 9 46 18 63 51 26 51 27 85 1 78
-22 -6 -34 9 -25 31 8 21 33 21 41 0 5 -12 7 -13 14 -3 11 19 61 -19 69 -52 6
-22 9 -19 38 31 48 83 57 122 57 257 -1 68 3 119 7 115 4 -4 25 -54 48 -112
59 -151 59 -150 69 -150 19 0 22 22 22 187 0 118 -3 177 -13 199 -11 27 -13 8
-10 -147 1 -99 -1 -179 -6 -179 -12 0 -33 96 -26 117 5 15 4 16 -5 3 -6 -9
-11 -10 -11 -3 0 6 -3 20 -6 30 -4 14 -4 15 4 4 5 -8 15 -10 22 -6 13 8 8 94
-7 118 -4 6 -13 26 -19 44 -9 25 -9 30 2 26 10 -4 14 3 13 23 -2 42 -19 94
-30 94 -6 0 -8 9 -4 19 3 11 1 22 -5 26 -5 3 -10 11 -10 17 0 16 36 -34 45
-62 11 -35 35 -69 35 -50 0 36 -58 170 -74 170 -6 0 -19 19 -28 42 -10 23 -20
39 -24 36 -3 -3 6 -29 20 -57 13 -28 21 -51 16 -51 -4 0 -22 30 -40 66 -43 87
-87 130 -193 183 -48 25 -85 46 -83 49 2 2 14 -2 26 -8 12 -6 24 -9 27 -7 13
14 -48 29 -125 33 -50 2 -88 8 -92 15 -9 14 -124 18 -164 5 -21 -6 -30 -5 -37
5 -7 12 -9 12 -9 0 0 -9 -4 -10 -12 -4 -7 6 -18 8 -25 6z m747 -667 c0 -12 -5
-7 -19 24 -11 24 -11 24 3 6 9 -11 16 -24 16 -30z m-140 -322 c0 -8 -5 -12
-10 -9 -6 4 -8 11 -5 16 9 14 15 11 15 -7z"/>
<path d="M1600 2310 c0 -5 5 -10 11 -10 5 0 7 5 4 10 -3 6 -8 10 -11 10 -2 0
-4 -4 -4 -10z"/>
<path d="M1751 1918 c-1 -16 4 -28 9 -28 12 0 12 8 0 35 -8 18 -9 17 -9 -7z"/>
<path d="M326 1827 c3 -10 9 -15 12 -12 3 3 0 11 -7 18 -10 9 -11 8 -5 -6z"/>
<path d="M1325 1751 c-52 -13 -133 -52 -152 -73 -21 -24 -18 -23 63 19 34 17
92 38 130 47 57 12 62 14 29 14 -22 0 -53 -3 -70 -7z"/>
<path d="M1265 1603 c-32 -7 -107 -35 -103 -39 2 -2 26 3 53 12 28 8 85 16
128 18 43 2 81 7 84 10 7 7 -130 6 -162 -1z"/>
<path d="M653 1583 c-13 -2 -23 -8 -23 -12 0 -4 32 -3 71 3 53 7 85 6 121 -4
58 -14 78 -6 21 9 -37 11 -145 13 -190 4z"/>
<path d="M555 1535 c20 -16 20 -16 1 -31 -23 -17 -33 -18 -41 -4 -3 6 -11 10
-17 10 -6 0 -4 -8 5 -18 11 -12 13 -22 7 -32 -14 -22 -12 -60 3 -60 8 0 22 9
32 20 25 27 35 25 35 -8 0 -15 12 -45 26 -66 15 -21 22 -36 15 -32 -6 4 -11 3
-11 -2 0 -10 75 -32 109 -32 12 0 21 4 21 9 0 5 9 13 20 16 48 15 67 121 29
169 -11 15 -15 26 -9 26 20 0 70 -40 70 -56 0 -8 5 -14 11 -14 7 0 9 10 5 25
-4 15 -2 25 4 25 22 0 -4 23 -47 42 -36 16 -63 19 -141 17 -53 -2 -108 1 -122
5 -24 7 -25 7 -5 -9z m233 -83 c3 -16 -2 -22 -17 -22 -24 0 -35 15 -27 36 9
23 40 13 44 -14z"/>
<path d="M1760 1313 c-21 -9 -50 -13 -72 -10 -35 5 -39 3 -63 -39 -14 -23 -45
-64 -69 -91 l-43 -47 46 -22 c25 -12 80 -45 121 -73 l75 -51 6 32 c4 18 7 25
8 16 0 -9 5 -19 10 -22 5 -4 10 44 10 112 1 64 4 138 7 165 4 26 5 47 3 46 -2
0 -20 -7 -39 -16z"/>
<path d="M567 1263 c-4 -3 -7 -11 -7 -17 0 -6 5 -5 12 2 6 6 9 14 7 17 -3 3
-9 2 -12 -2z"/>
<path d="M615 1260 c-3 -5 -1 -10 4 -10 6 0 11 5 11 10 0 6 -2 10 -4 10 -3 0
-8 -4 -11 -10z"/>
<path d="M324 1233 c3 -10 10 -54 16 -98 6 -44 16 -106 22 -138 10 -52 13 -57
32 -51 75 23 75 23 50 105 -47 159 -56 178 -87 189 -39 13 -39 13 -33 -7z"/>
<path d="M1186 1217 c2 -7 -5 -23 -17 -35 -17 -19 -27 -22 -52 -16 -38 10 -62
9 -142 -4 -52 -8 -42 -9 69 -7 110 2 130 5 138 20 7 12 17 15 36 10 l27 -6
-27 25 c-30 29 -40 33 -32 13z"/>
<path d="M1363 1055 c-55 -26 -182 -55 -236 -55 -46 0 -50 -7 -23 -44 13 -17
38 -60 56 -96 18 -35 42 -80 54 -100 12 -19 35 -66 51 -105 33 -80 95 -179 95
-152 0 10 -5 28 -11 39 -16 30 -13 96 6 125 23 35 74 53 158 55 126 4 189 -47
137 -112 l-20 -25 0 28 c0 16 5 37 10 47 8 15 6 21 -9 30 -11 5 -21 10 -24 10
-8 0 6 -115 15 -121 7 -4 7 -8 1 -10 -6 -2 -13 -17 -17 -34 -6 -29 -6 -29 39
17 40 41 45 52 45 92 0 34 -5 49 -23 63 -12 10 -44 54 -71 98 -26 43 -80 114
-119 158 -63 69 -70 81 -59 98 15 24 10 23 -55 -6z"/>
<path d="M684 1023 c4 -14 -5 -23 -34 -36 -22 -10 -45 -28 -52 -40 -6 -12 -38
-52 -70 -90 -32 -37 -70 -90 -85 -118 -16 -29 -34 -63 -42 -77 -11 -20 -11
-31 0 -64 14 -43 37 -67 25 -27 -17 58 -17 84 -1 104 16 20 16 19 9 -5 -3 -14
-3 -22 1 -17 5 4 9 17 10 30 2 35 62 51 117 31 77 -27 120 -85 120 -160 0 -24
1 -44 2 -44 10 0 94 134 151 240 88 165 137 229 189 250 18 8 17 9 -11 9 -17
1 -33 -4 -35 -11 -3 -9 -29 -9 -108 1 -58 7 -111 16 -120 20 -8 5 -28 11 -43
15 -24 6 -28 4 -23 -11z"/>
<path d="M962 844 c-14 -24 -3 -54 19 -54 25 0 34 23 19 49 -13 25 -26 27 -38
5z"/>
<path d="M1083 743 c-18 -7 -16 -50 3 -57 22 -8 22 -8 34 13 18 35 -2 59 -37
44z"/>
<path d="M890 657 c0 -40 44 -65 57 -32 6 18 -23 55 -44 55 -7 0 -13 -10 -13
-23z"/>
<path d="M1237 644 c-10 -11 -9 -64 2 -64 6 0 12 4 15 8 8 13 -8 65 -17 56z"/>
<path d="M747 565 c-8 -20 3 -47 17 -42 6 2 11 14 11 27 0 27 -20 38 -28 15z"/>
<path d="M1056 524 c-23 -22 -21 -54 4 -54 20 0 40 27 40 54 0 21 -24 20 -44
0z"/>
<path d="M1572 459 c-21 -34 -76 -51 -121 -39 -21 5 -44 17 -51 25 -27 33 -28
12 -3 -56 24 -65 25 -73 12 -112 -8 -23 -23 -51 -34 -62 -11 -11 -19 -25 -17
-31 5 -22 -25 -31 -138 -42 -154 -16 -208 -16 -319 -3 -51 6 -116 14 -143 16
-65 6 -127 41 -134 75 -3 14 -9 35 -14 47 -6 14 -5 34 2 53 8 23 7 35 -1 43
-9 9 -14 9 -20 -2 -7 -10 -14 -10 -41 4 -34 18 -40 15 -70 -36 -5 -9 -22 -20
-37 -24 -39 -9 -159 -90 -178 -119 -26 -39 -36 -88 -29 -144 l6 -52 286 0
c275 0 287 1 308 21 l22 20 33 -20 c30 -19 50 -21 174 -21 105 0 147 4 169 15
26 14 31 14 46 0 14 -13 59 -15 288 -15 l272 0 2 28 c4 72 -16 153 -43 178
-17 15 -17 19 -4 45 22 41 19 76 -7 90 -13 7 -59 39 -102 71 -96 73 -98 73
-114 47z"/>
<path d="M1187 423 c-4 -3 -7 -19 -7 -35 0 -21 5 -28 19 -28 26 0 34 15 27 46
-6 23 -25 32 -39 17z"/>
<path d="M805 408 c-13 -35 -9 -62 9 -66 27 -6 39 12 31 47 -7 31 -31 42 -40
19z"/>
<path d="M973 363 c-17 -6 -17 -53 0 -53 20 0 57 30 57 46 0 14 -31 18 -57 7z"/>
</g>
</svg>
